REM DIRINDEX 1\2\6,1\2\7,1\2\8,1\3\9,1\3\10,1\3\11,1\4\12,1\4\13,1\4\14,1\5\15,1\5\16,1\5\17,1\5\18
REM DIRNAME folder01,folder02,folder03,folder04,folder05,folder06,folder07,folder08,folder09,folder10,folder11,folder12,folder13,folder14,folder15,folder16,folder17,folder18
TITLE ""
FILE "" MP3
  TRACK 01 AUDIO
    TITLE "16:cjc019_5855"
    INDEX 01 00:00:00
  TRACK 02 AUDIO
    TITLE "0:"
    INDEX 01 00:01:01
  TRACK 03 AUDIO
    TITLE "18:cjc019_5856"
    INDEX 01 00:01:62
  TRACK 04 AUDIO
    TITLE "0:"
    INDEX 01 00:03:43
  TRACK 05 AUDIO
    TITLE "17:cjc019_5857"
    INDEX 01 00:04:21
  TRACK 06 AUDIO
    TITLE "0:"
    INDEX 01 00:05:38
  TRACK 07 AUDIO
    TITLE "16:cjc019_5858"
    INDEX 01 00:07:29
  TRACK 08 AUDIO
    TITLE "0:"
    INDEX 01 00:08:40
  TRACK 09 AUDIO
    TITLE "18:cjc019_5859"
    INDEX 01 00:09:22
  TRACK 10 AUDIO
    TITLE "0:"
    INDEX 01 00:10:68
  TRACK 11 AUDIO
    TITLE "17:cjc019_5860"
    INDEX 01 00:11:44
  TRACK 12 AUDIO
    TITLE "0:"
    INDEX 01 00:12:63
  TRACK 13 AUDIO
    TITLE "16:cjc019_5861"
    INDEX 01 00:14:51
  TRACK 14 AUDIO
    TITLE "0:"
    INDEX 01 00:15:70
  TRACK 15 AUDIO
    TITLE "18:cjc019_5862"
    INDEX 01 00:16:51
  TRACK 16 AUDIO
    TITLE "0:"
    INDEX 01 00:19:26
  TRACK 17 AUDIO
    TITLE "17:cjc019_5863"
    INDEX 01 00:20:08
  TRACK 18 AUDIO
    TITLE "0:"
    INDEX 01 00:21:29
  TRACK 19 AUDIO
    TITLE "16:cjc019_5864"
    INDEX 01 00:23:14
  TRACK 20 AUDIO
    TITLE "0:"
    INDEX 01 00:24:35
  TRACK 21 AUDIO
    TITLE "18:cjc019_5865"
    INDEX 01 00:25:23
  TRACK 22 AUDIO
    TITLE "0:"
    INDEX 01 00:28:17
  TRACK 23 AUDIO
    TITLE "17:cjc019_5866"
    INDEX 01 00:28:72
  TRACK 24 AUDIO
    TITLE "0:"
    INDEX 01 00:30:26
  TRACK 25 AUDIO
    TITLE "16:cjc019_5867"
    INDEX 01 00:32:07
  TRACK 26 AUDIO
    TITLE "0:"
    INDEX 01 00:33:28
  TRACK 27 AUDIO
    TITLE "18:cjc019_5868"
    INDEX 01 00:34:14
  TRACK 28 AUDIO
    TITLE "0:"
    INDEX 01 00:37:30
  TRACK 29 AUDIO
    TITLE "17:cjc019_5869"
    INDEX 01 00:38:10
  TRACK 30 AUDIO
    TITLE "0:"
    INDEX 01 00:39:29
  TRACK 31 AUDIO
    TITLE "16:cjc019_5870"
    INDEX 01 00:41:12
  TRACK 32 AUDIO
    TITLE "0:"
    INDEX 01 00:42:33
  TRACK 33 AUDIO
    TITLE "18:cjc019_5871"
    INDEX 01 00:43:09
  TRACK 34 AUDIO
    TITLE "0:"
    INDEX 01 00:45:33
  TRACK 35 AUDIO
    TITLE "17:cjc019_5872"
    INDEX 01 00:46:09
  TRACK 36 AUDIO
    TITLE "0:"
    INDEX 01 00:47:34
  TRACK 37 AUDIO
    TITLE "16:cjc019_5873"
    INDEX 01 00:49:08
  TRACK 38 AUDIO
    TITLE "0:"
    INDEX 01 00:50:23
  TRACK 39 AUDIO
    TITLE "18:cjc019_5874"
    INDEX 01 00:51:09
  TRACK 40 AUDIO
    TITLE "0:"
    INDEX 01 00:54:23
  TRACK 41 AUDIO
    TITLE "17:cjc019_5875"
    INDEX 01 00:54:74
  TRACK 42 AUDIO
    TITLE "0:"
    INDEX 01 00:56:18
  TRACK 43 AUDIO
    TITLE "16:cjc019_5876"
    INDEX 01 00:58:03
  TRACK 44 AUDIO
    TITLE "0:"
    INDEX 01 00:59:20
  TRACK 45 AUDIO
    TITLE "18:cjc019_5877"
    INDEX 01 01:00:00
  TRACK 46 AUDIO
    TITLE "0:"
    INDEX 01 01:01:27
  TRACK 47 AUDIO
    TITLE "17:cjc019_5878"
    INDEX 01 01:02:08
  TRACK 48 AUDIO
    TITLE "0:"
    INDEX 01 01:03:29
  TRACK 49 AUDIO
    TITLE "16:cjc019_5879"
    INDEX 01 01:05:13
  TRACK 50 AUDIO
    TITLE "0:"
    INDEX 01 01:06:24
  TRACK 51 AUDIO
    TITLE "18:cjc019_5880"
    INDEX 01 01:06:71
  TRACK 52 AUDIO
    TITLE "0:"
    INDEX 01 01:10:04
  TRACK 53 AUDIO
    TITLE "17:cjc019_5881"
    INDEX 01 01:10:53
  TRACK 54 AUDIO
    TITLE "0:"
    INDEX 01 01:11:66
  TRACK 55 AUDIO
    TITLE "16:cjc019_5882"
    INDEX 01 01:13:42
  TRACK 56 AUDIO
    TITLE "0:"
    INDEX 01 01:14:45
  TRACK 57 AUDIO
    TITLE "18:cjc019_5883"
    INDEX 01 01:15:29
  TRACK 58 AUDIO
    TITLE "0:"
    INDEX 01 01:16:63
  TRACK 59 AUDIO
    TITLE "17:cjc019_5884"
    INDEX 01 01:17:45
  TRACK 60 AUDIO
    TITLE "0:"
    INDEX 01 01:18:49
  TRACK 61 AUDIO
    TITLE "16:cjc019_5885"
    INDEX 01 01:20:36
  TRACK 62 AUDIO
    TITLE "0:"
    INDEX 01 01:21:57
  TRACK 63 AUDIO
    TITLE "18:cjc019_5886"
    INDEX 01 01:22:42
  TRACK 64 AUDIO
    TITLE "0:"
    INDEX 01 01:27:44
  TRACK 65 AUDIO
    TITLE "17:cjc019_5887"
    INDEX 01 01:28:25
  TRACK 66 AUDIO
    TITLE "0:"
    INDEX 01 01:29:52
  TRACK 67 AUDIO
    TITLE "16:cjc019_5888"
    INDEX 01 01:31:39
  TRACK 68 AUDIO
    TITLE "0:"
    INDEX 01 01:32:47
  TRACK 69 AUDIO
    TITLE "18:cjc019_5889"
    INDEX 01 01:33:34
  TRACK 70 AUDIO
    TITLE "0:"
    INDEX 01 01:36:17
  TRACK 71 AUDIO
    TITLE "17:cjc019_5890"
    INDEX 01 01:36:68
  TRACK 72 AUDIO
    TITLE "0:"
    INDEX 01 01:38:04
  TRACK 73 AUDIO
    TITLE "16:cjc019_5891"
    INDEX 01 01:39:64
  TRACK 74 AUDIO
    TITLE "0:"
    INDEX 01 01:40:72
  TRACK 75 AUDIO
    TITLE "18:cjc019_5892"
    INDEX 01 01:41:57
  TRACK 76 AUDIO
    TITLE "0:"
    INDEX 01 01:45:06
  TRACK 77 AUDIO
    TITLE "17:cjc019_5893"
    INDEX 01 01:45:47
  TRACK 78 AUDIO
    TITLE "0:"
    INDEX 01 01:46:53
  TRACK 79 AUDIO
    TITLE "16:cjc019_5894"
    INDEX 01 01:48:38
  TRACK 80 AUDIO
    TITLE "0:"
    INDEX 01 01:50:06
  TRACK 81 AUDIO
    TITLE "18:cjc019_5895"
    INDEX 01 01:50:62
  TRACK 82 AUDIO
    TITLE "0:"
    INDEX 01 01:54:29
  TRACK 83 AUDIO
    TITLE "17:cjc019_5896"
    INDEX 01 01:55:09
  TRACK 84 AUDIO
    TITLE "0:"
    INDEX 01 01:56:53
  TRACK 85 AUDIO
    TITLE "16:cjc019_5897"
    INDEX 01 01:58:36
  TRACK 86 AUDIO
    TITLE "0:"
    INDEX 01 01:59:50
  TRACK 87 AUDIO
    TITLE "18:cjc019_5898"
    INDEX 01 02:00:31
  TRACK 88 AUDIO
    TITLE "0:"
    INDEX 01 02:06:71
  TRACK 89 AUDIO
    TITLE "17:cjc019_5899"
    INDEX 01 02:07:47
  TRACK 90 AUDIO
    TITLE "0:"
    INDEX 01 02:08:58
  TRACK 91 AUDIO
    TITLE "16:cjc019_5900"
    INDEX 01 02:10:38
  TRACK 92 AUDIO
    TITLE "0:"
    INDEX 01 02:11:63
  TRACK 93 AUDIO
    TITLE "18:cjc019_5901"
    INDEX 01 02:12:48
  TRACK 94 AUDIO
    TITLE "0:"
    INDEX 01 02:15:58
  TRACK 95 AUDIO
    TITLE "17:cjc019_5902"
    INDEX 01 02:16:32
  TRACK 96 AUDIO
    TITLE "0:"
    INDEX 01 02:17:59
  TRACK 97 AUDIO
    TITLE "16:cjc019_5903"
    INDEX 01 02:19:40
  TRACK 98 AUDIO
    TITLE "0:"
    INDEX 01 02:20:52
  TRACK 99 AUDIO
    TITLE "18:cjc019_5904"
    INDEX 01 02:21:35
  TRACK 100 AUDIO
    TITLE "0:"
    INDEX 01 02:23:19
  TRACK 101 AUDIO
    TITLE "17:cjc019_5905"
    INDEX 01 02:23:72
  TRACK 102 AUDIO
    TITLE "0:"
    INDEX 01 02:25:12
  TRACK 103 AUDIO
    TITLE "16:cjc019_5906"
    INDEX 01 02:26:68
  TRACK 104 AUDIO
    TITLE "0:"
    INDEX 01 02:28:06
  TRACK 105 AUDIO
    TITLE "18:cjc019_5907"
    INDEX 01 02:28:65
  TRACK 106 AUDIO
    TITLE "0:"
    INDEX 01 02:32:06
  TRACK 107 AUDIO
    TITLE "17:cjc019_5908"
    INDEX 01 02:32:59
  TRACK 108 AUDIO
    TITLE "0:"
    INDEX 01 02:33:74
